<mxfile host="app.diagrams.net" modified="2023-01-04T03:11:15.576Z" agent="5.0 (Macintosh; Intel Mac OS X 10_15_7) AppleWebKit/537.36 (KHTML, like Gecko) Chrome/108.0.0.0 Safari/537.36" version="20.8.1" etag="DRhOF0OPLsQIRCjqCZnm" type="github">
  <diagram id="Os91I-XowWBZYt8B9EQa" name="第 1 页">
    <mxGraphModel dx="2069" dy="796" grid="1" gridSize="10" guides="1" tooltips="1" connect="1" arrows="1" fold="1" page="1" pageScale="1" pageWidth="827" pageHeight="1169" math="0" shadow="0">
      <root>
        <mxCell id="0" />
        <mxCell id="1" parent="0" />
        <mxCell id="6wJI2BJuQm3yl-XVdmU3-3" value="" style="rounded=1;whiteSpace=wrap;html=1;" vertex="1" parent="1">
          <mxGeometry x="220" y="160" width="120" height="60" as="geometry" />
        </mxCell>
        <mxCell id="6wJI2BJuQm3yl-XVdmU3-4" value="第一个。。。。。。。。。。。。。。。。。。。。。。。。。。。" style="text;html=1;strokeColor=none;fillColor=none;align=center;verticalAlign=middle;whiteSpace=wrap;rounded=1;strokeWidth=6;perimeterSpacing=2;fontSize=30;" vertex="1" parent="1">
          <mxGeometry x="110" y="30" width="490" height="110" as="geometry" />
        </mxCell>
      </root>
    </mxGraphModel>
  </diagram>
</mxfile>
